<?xml version="1.0" encoding="utf-8"?>
<!-- Generator: Adobe Illustrator 17.0.0, SVG Export Plug-In . SVG Version: 6.00 Build 0)  -->
<!DOCTYPE svg PUBLIC "-//W3C//DTD SVG 1.1//EN" "http://www.w3.org/Graphics/SVG/1.1/DTD/svg11.dtd">
<svg version="1.1" id="圖層_1" xmlns="http://www.w3.org/2000/svg" xmlns:xlink="http://www.w3.org/1999/xlink" x="0px" y="0px"
	 width="243px" height="48px" viewBox="0 0 243 48" enable-background="new 0 0 243 48" xml:space="preserve">
<title>logo_l</title>
<desc>Created with Sketch.</desc>
<g id="Welcome">
	<g id="Artboard" transform="translate(-794.000000, -98.000000)">
		<path id="logo_l" fill="#3D1101" d="M806.671,121.89c-2.94,6.664-7.889,14.063-12.299,18.473c2.009,1.127,5.586,3.479,7.252,4.851
			c4.165-5.096,9.555-13.377,13.132-20.727L806.671,121.89z M820.146,124.928c3.92,6.37,9.555,14.847,11.956,20.041l7.644-4.165
			c-2.842-5.194-8.869-13.328-12.691-19.208L820.146,124.928z M817.745,111.061l5.978-2.205c-1.078-2.646-3.332-6.762-4.9-9.751
			l-7.546,2.548c1.372,2.94,3.185,6.762,4.116,9.408h-20.335v7.448h45.031v-7.448H817.745z M871.4,129.142v-3.381h7.546v3.381H871.4
			z M864.638,125.761v3.381h-7.35c0.147-1.127,0.245-2.303,0.294-3.381H864.638z M867.725,107.484
			c-0.539,0.98-1.176,1.96-1.764,2.842h-8.722c0.784-0.931,1.47-1.862,2.156-2.842H867.725z M857.631,116.5h7.007v3.332h-7.007
			V116.5z M878.946,119.832H871.4V116.5h7.546V119.832z M886.002,110.326h-12.299c1.421-1.96,2.744-3.969,3.773-5.684l-4.851-3.234
			l-1.127,0.294h-8.526c0.245-0.49,0.539-1.029,0.784-1.519l-7.595-1.372c-2.205,4.851-6.174,10.241-12.299,14.259
			c1.617,1.078,3.969,3.577,5.047,5.243c0.637-0.49,1.225-0.931,1.813-1.421v6.468c0,5.88-0.588,12.887-7.693,17.591
			c1.421,0.98,4.067,3.626,5.047,4.998c4.116-2.744,6.517-6.615,7.889-10.731h22.981v2.646c0,0.931-0.392,1.225-1.47,1.225
			s-5.292,0.049-8.379-0.147c1.029,1.764,2.303,4.851,2.646,6.811c4.851,0,8.33-0.098,10.878-1.176
			c2.499-1.078,3.381-2.94,3.381-6.566V110.326z M917.362,112.678h-4.116v-4.312h4.116V112.678z M929.024,119.195v5.635
			c-0.196,0.049-0.441,0.098-0.833,0.098h-2.744c-1.225,0-1.372-0.147-1.372-1.96v-3.773H929.024z M902.417,136.296v-6.223
			c0.784,0.882,1.47,1.813,1.862,2.45c6.762-2.891,8.624-8.232,8.918-13.328h4.165v3.822c0,6.517,1.176,8.526,6.909,8.526h4.655
			h0.098v4.753H902.417z M906.876,119.195c-0.245,2.695-1.127,5.194-4.459,7.203v-7.203H906.876z M937.697,108.366v-6.86h-44.59
			v6.86h13.818v4.312h-11.417v32.781h6.909v-2.646h26.607v2.646h7.252v-32.781h-12.201v-4.312H937.697z M955.827,109.689
			c-1.078,1.127-2.303,2.156-3.724,3.136c-0.833-0.686-1.96-1.519-2.989-2.107c0.343-0.343,0.686-0.686,1.029-1.029H955.827z
			 M959.894,105.769l-1.029,0.245h-2.352v-1.127h7.693v-4.067h-7.693v-1.715h-5.929v6.468l-2.891-0.539
			c-1.421,1.96-3.773,4.116-6.958,5.733c1.127,0.735,2.793,2.499,3.577,3.675c0.49-0.294,0.931-0.588,1.372-0.931
			c0.735,0.539,1.568,1.176,2.254,1.764c-1.96,0.931-4.018,1.715-6.027,2.254c1.127,1.029,2.646,2.989,3.381,4.263
			c7.546-2.499,14.896-7.007,18.473-13.965L959.894,105.769z M953.524,125.369c1.666-0.735,3.283-1.568,4.851-2.45v1.813h12.152
			v-1.666c1.617,0.833,3.332,1.568,5.047,2.303H953.524z M977.681,136.541c-0.539,0.49-1.078,0.931-1.617,1.372
			c-1.323-0.49-2.695-0.931-4.067-1.372H977.681z M957.395,139.089v-2.548h7.595l-1.666,1.911l0.49,0.147L957.395,139.089z
			 M957.395,132.131h14.798v0.931h-14.798V132.131z M957.395,128.897h14.798v0.833h-14.798V128.897z M960.727,121.498
			c1.127-0.686,2.205-1.47,3.234-2.254c1.127,0.784,2.352,1.519,3.626,2.254H960.727z M976.897,105.279
			c-0.686,0.882-1.47,1.715-2.401,2.499c-1.862-0.931-3.773-1.764-5.488-2.499H976.897z M986.06,114.687
			c-1.568-1.274-3.773-2.695-6.174-4.067c2.254-2.352,4.018-5.243,5.194-8.673l-3.871-1.568l-1.078,0.196H965.48v4.704h3.185
			l-3.822,3.724c1.421,0.637,2.891,1.323,4.41,2.107c-0.98,0.441-2.009,0.833-3.038,1.127c0.343,0.343,0.686,0.784,1.078,1.225
			l-3.136-1.617c-4.949,5.537-14.406,9.653-23.03,11.858c1.372,1.372,2.891,3.479,3.626,4.998c1.96-0.637,3.92-1.323,5.88-2.107
			v11.074c0,1.911-0.735,2.695-1.617,3.136c0.784,0.931,1.764,3.381,2.009,4.753c1.323-0.588,3.381-0.98,15.19-2.107
			c-0.098-1.029-0.049-2.695,0.049-4.116c5.831,1.862,12.495,4.557,16.023,6.664l3.332-4.018c-1.225-0.686-2.793-1.421-4.508-2.107
			c1.421-1.029,2.891-2.107,4.312-3.185l-4.851-3.038c-0.49,0.539-1.029,1.127-1.666,1.715v-8.673
			c1.862,0.686,3.675,1.225,5.39,1.715c0.833-1.47,2.597-3.822,3.871-4.998c-6.958-1.47-15.288-4.312-20.433-7.301
			c0.245-0.294,0.539-0.588,0.833-0.882c0.441,0.686,0.833,1.323,1.078,1.862c1.96-0.735,3.773-1.617,5.488-2.646
			c2.695,1.617,5.047,3.234,6.615,4.606L986.06,114.687z M1006.395,123.752v-1.274h2.548v1.176L1006.395,123.752z M1008.943,113.511
			v1.127h-2.548v-1.127H1008.943z M1006.395,117.921h2.548v1.274h-2.548V117.921z M1014.088,113.511h1.568v-4.263h-15.484v4.263
			h1.372v10.437l-2.009,0.049l0.343,4.753c2.744-0.196,5.831-0.392,9.065-0.588v4.41l-2.107-3.969
			c-2.107,0.539-5.243,0.931-7.987,1.078c0.49-4.508,0.588-8.918,0.588-12.495v-9.604h36.652v-5.39h-17.934
			c-0.637-1.323-1.568-2.744-2.499-3.871l-6.125,2.352c0.343,0.49,0.686,0.98,0.98,1.519h-17.444v15.043
			c0,7.252-0.196,17.64-3.381,24.647c1.421,0.637,4.263,2.695,5.39,3.871c1.96-4.067,3.038-9.457,3.675-14.798
			c0.294,0.882,0.539,1.862,0.637,2.548c0.735,0.049,1.568,0.049,2.401,0.049v1.274h-2.254v3.626h2.254v1.666l-3.675,0.196
			l0.441,4.263c3.038-0.245,6.321-0.539,9.751-0.882l-0.098-3.969l-2.156,0.147v-1.421h2.107v-3.626h-2.107v-1.617
			c1.029-0.098,2.009-0.245,2.891-0.441v12.838h5.145v-2.891l3.332,1.519c1.372-2.107,1.911-5.439,2.205-8.575l-4.361-1.225
			c-0.147,2.009-0.539,4.067-1.176,5.831V113.511z M1029.67,119.93h1.323v2.401h-1.323V119.93z M1026.191,122.331h-1.274v-2.401
			h1.274V122.331z M1021.438,122.331h-1.225v-2.401h1.225V122.331z M1035.452,114.736v-4.704h-7.056v-1.764h-5.929v1.764h-6.468
			v4.704h6.468v1.421h-6.272v9.996h19.012v-9.996h-6.811v-1.421H1035.452z M1025.211,141.049c-0.588,0-0.686-0.098-0.686-1.127
			v-3.969c0.588,0.784,1.078,1.568,1.372,2.205l3.626-2.156c0.539,1.127,1.078,2.352,1.519,3.577
			c-1.274-0.343-2.891-0.98-3.626-1.617c-0.098,2.744-0.294,3.087-0.931,3.087H1025.211z M1036.726,141.833
			c-0.343-2.352-1.813-5.831-3.381-8.477l-4.018,1.421c-0.588-0.882-1.47-1.911-2.352-2.842h9.555v-4.606h-21.217v4.606h7.889
			l-1.421,0.833c0.588,0.539,1.176,1.176,1.715,1.862h-3.822v5.292c0,4.116,0.784,5.439,4.704,5.439h2.744
			c2.548,0,3.773-0.98,4.361-4.459c0.294,0.98,0.49,1.862,0.588,2.646L1036.726,141.833z"/>
	</g>
</g>
</svg>
